<svg width="47" height="50" viewBox="0 0 47 50" fill="none" xmlns="http://www.w3.org/2000/svg">
<path d="M41.2655 39.481C40.6071 38.9947 39.8183 38.4498 38.9209 37.8616C38.5819 37.6395 38.1271 37.734 37.9048 38.073C37.6826 38.412 37.7772 38.8669 38.1162 39.0892C38.9907 39.6625 39.7569 40.1916 40.3934 40.6617C43.468 42.9329 44.5834 44.9142 44.7092 48.5323H38.2063C38.1659 47.002 38.0204 45.4491 38.0132 45.3736C37.9749 44.9701 37.6169 44.6731 37.2134 44.7123C36.8099 44.7505 36.5138 45.1085 36.552 45.512C36.5537 45.5298 36.6967 47.0563 36.7379 48.5323H13.7616C13.8028 47.0562 13.9458 45.5298 13.9476 45.5119C13.9857 45.1084 13.6896 44.7504 13.2861 44.7122C12.8823 44.6735 12.5246 44.9701 12.4864 45.3735C12.4793 45.4491 12.3337 47.0019 12.2934 48.5322H7.72461C8.04629 48.0137 8.28721 47.3648 8.44033 46.595L8.44072 46.5957C9.93389 46.3398 11.0741 45.0369 11.0741 43.4719C11.0741 42.4222 10.5609 41.4904 9.77266 40.9132C9.88135 40.8295 9.99258 40.7456 10.1062 40.6616C13.1533 38.4107 18.2138 35.5114 20.3045 34.3383C20.835 36.5782 22.8501 38.2503 25.2499 38.2503C27.6497 38.2503 29.665 36.5781 30.1954 34.3382C31.3728 34.9984 33.4905 36.2051 35.6508 37.53C36.0192 37.7559 36.5154 37.6062 36.6989 37.216C36.856 36.8822 36.7323 36.4715 36.4181 36.2788C33.8147 34.6822 31.2725 33.2557 30.3331 32.7343V31.7022C32.2448 30.5228 33.719 28.6996 34.4506 26.537C34.4787 26.5377 34.5069 26.5392 34.5351 26.5392C36.5899 26.5392 38.2617 24.8674 38.2617 22.8125C38.2617 22.0103 38.0061 21.2672 37.5732 20.6584C37.9109 19.3213 38.1144 17.9769 38.1749 16.6566C38.1935 16.2518 37.8803 15.9085 37.4755 15.8899C37.0711 15.8722 36.7274 16.1846 36.7088 16.5894C36.6641 17.5641 36.5351 18.5544 36.3258 19.5453C35.794 19.2526 35.1837 19.0857 34.5351 19.0857C34.4846 19.0857 34.4338 19.0876 34.3831 19.0896C33.6014 18.6623 30.2299 16.6279 29.7996 13.1577C31.0102 12.9676 32.2226 12.6756 33.3063 12.2345C34.4076 11.7863 35.2242 11.2457 35.827 10.6641C36.197 11.6596 36.4561 12.7047 36.5969 13.7853C36.6492 14.187 37.0324 14.4765 37.433 14.4162C37.8231 14.3575 38.1033 13.9875 38.0522 13.5957C37.8562 12.091 37.4533 10.6463 36.8548 9.29502C37.2697 8.48564 37.4013 7.67138 37.4016 6.96787C37.4021 5.65459 36.8475 4.51211 35.7977 3.66406C34.8986 2.93779 33.6482 2.43496 32.1817 2.21015C30.8859 2.01142 29.5109 2.04453 28.31 2.30322C28.054 2.3584 27.8104 2.38506 27.5756 2.38916C27.8358 2.01035 28.1909 1.60517 28.6204 1.39043C28.9829 1.20918 29.1299 0.768356 28.9486 0.405856C28.7674 0.0433564 28.3265 -0.103714 27.9641 0.0777314C27.0147 0.552341 26.3719 1.4792 26.0255 2.10117C25.6312 1.958 25.239 1.77549 24.8268 1.58271C23.3497 0.892185 21.6755 0.109567 19.102 0.771384C15.4744 1.7042 12.8269 4.86347 13.2002 7.81396C13.2555 8.25088 13.3853 8.75547 13.6514 9.28066C11.7757 13.4979 12.1824 17.7201 12.9257 20.6598C12.4934 21.2683 12.2382 22.0109 12.2382 22.8125C12.2382 24.8674 13.91 26.5392 15.9648 26.5392C15.993 26.5392 16.0212 26.5376 16.0493 26.537C16.7809 28.6996 18.2552 30.5228 20.1668 31.7023V32.7339C18.6058 33.5986 12.7321 36.8974 9.23418 39.4812C8.85078 39.7645 8.50332 40.0391 8.17783 40.3145C8.08105 40.3062 7.98389 40.3013 7.88682 40.302C7.84531 40.3024 7.78691 40.3155 7.75811 40.2919C7.72764 40.2669 7.70273 40.2019 7.68115 40.1686L8.46562 28.7896C8.47324 28.6784 8.45439 28.5628 8.41201 28.4597L7.19551 25.5061C7.73027 24.9548 8.03809 24.2091 8.03809 23.4162C8.03809 23.0012 7.91172 22.2172 6.81895 20.2093C6.24805 19.1602 5.68603 18.2811 5.6624 18.2441C5.37881 17.8013 4.71006 17.8013 4.42646 18.2441C4.40283 18.2811 3.84082 19.1602 3.26992 20.2093C2.17715 22.2173 2.05078 23.0012 2.05078 23.4162C2.05078 24.2091 2.35859 24.9548 2.89336 25.5061L1.67686 28.4597C1.63447 28.5627 1.61563 28.6784 1.62324 28.7896L1.86006 32.2244C1.88789 32.6287 2.23828 32.9332 2.64268 32.9061C3.04697 32.8781 3.35225 32.5278 3.32432 32.1234L3.1416 29.4729H6.94736L6.29199 38.9788C5.94824 38.8407 5.57002 38.7697 5.15908 38.7697C4.68516 38.7697 4.2292 38.8695 3.80186 39.0515L3.52607 35.0518C3.49814 34.6474 3.14697 34.3424 2.74346 34.3701C2.33916 34.398 2.03389 34.7483 2.06182 35.1527L2.39941 40.0494C1.43047 41.0801 0.811523 42.6409 0.811523 44.3851C0.811523 47.4178 2.68301 49.8951 5.0126 49.9954C5.0208 49.9984 5.03115 50.0002 5.04443 50.0002H45.4554C45.8606 50.0002 46.1893 49.6716 46.1893 49.2663C46.1892 44.6695 44.9468 42.2004 41.2655 39.481ZM34.9593 23.4327V20.5939C36.0026 20.7932 36.7939 21.7119 36.7939 22.8124C36.7939 23.9602 35.9332 24.9102 34.8235 25.0523C34.9123 24.5254 34.9593 23.9845 34.9593 23.4327ZM28.8652 33.1672C28.8652 35.1607 27.2434 36.7825 25.2498 36.7825C23.2563 36.7825 21.6345 35.1606 21.6345 33.1672V32.4422C22.7526 32.8926 23.9724 33.1421 25.2498 33.1421C26.5272 33.1421 27.7471 32.8925 28.8652 32.4422V33.1672ZM19.4673 2.19277C20.0203 2.05058 20.5183 1.99013 20.9776 1.99013C22.2324 1.99013 23.1984 2.4417 24.205 2.9122C25.4838 3.51006 26.8061 4.12822 28.6188 3.73799C31.1767 3.18711 33.7022 3.8581 34.8752 4.80566C35.5878 5.38134 35.934 6.08838 35.9337 6.96718C35.933 8.72588 34.8926 10.0041 32.753 10.8749C30.9176 11.6219 28.323 12.0167 25.2498 12.0167C18.9639 12.0167 15.0036 10.3767 14.6562 7.62959C14.3771 5.4249 16.5804 2.93506 19.4673 2.19277ZM13.7057 22.8124C13.7057 21.7119 14.497 20.7932 15.5403 20.5939V23.4327C15.5403 23.9845 15.5873 24.5254 15.6762 25.0523C14.5664 24.9101 13.7057 23.9602 13.7057 22.8124ZM15.9646 19.0856C15.3156 19.0856 14.7051 19.2527 14.173 19.5457C13.6538 17.0936 13.4661 13.8855 14.6771 10.6476C15.1227 11.0767 15.6938 11.4926 16.4259 11.8697C17.5807 12.4646 19.0105 12.8961 20.6995 13.1627C20.2665 16.6309 16.8956 18.6638 16.1167 19.0895C16.0659 19.0875 16.0151 19.0856 15.9646 19.0856ZM17.008 23.4327V20.2754C18.2255 19.5838 21.6779 17.2937 22.1585 13.345C23.1197 13.4369 24.1494 13.4845 25.2497 13.4845C26.1604 13.4845 27.2267 13.4495 28.3407 13.3414C28.8204 17.2846 32.2752 19.5812 33.4915 20.2745V23.4326C33.4915 27.9771 29.7942 31.6743 25.2497 31.6743C20.7052 31.6743 17.008 27.9772 17.008 23.4327ZM8.42295 41.8518C9.1084 42.0719 9.60635 42.7143 9.60635 43.472C9.60635 44.1535 9.20371 44.7429 8.62393 45.0145L8.62373 45.0147C8.63291 44.8103 8.63779 44.6005 8.63779 44.3849C8.63779 43.4223 8.54473 42.5715 8.3666 41.8406L8.42295 41.8518ZM5.04434 20.0468C5.85752 21.4382 6.57031 22.9061 6.57031 23.416C6.57031 23.8601 6.38418 24.274 6.06475 24.5591H4.02393C3.70449 24.274 3.51836 23.8601 3.51836 23.416C3.51836 22.9061 4.23115 21.4382 5.04434 20.0468ZM3.45117 28.0051L4.26602 26.0269H5.82266L6.6375 28.0051H3.45117ZM5.15898 48.5322C3.571 48.5322 2.2791 46.6717 2.2791 44.3848C2.2791 42.0978 3.571 40.2373 5.15898 40.2373C5.91006 40.2373 7.17002 40.7762 7.17002 44.3848C7.17012 47.9934 5.91006 48.5322 5.15898 48.5322Z" fill="#073141"/>
<path d="M20.9007 19.0857C20.1567 19.0857 19.5957 19.8337 19.5957 20.8256C19.5957 21.8175 20.1567 22.5656 20.9007 22.5656C21.6445 22.5656 22.2056 21.8175 22.2056 20.8256C22.2056 19.8337 21.6445 19.0857 20.9007 19.0857Z" fill="#073141"/>
<path d="M29.5988 22.5656C30.3428 22.5656 30.9037 21.8175 30.9037 20.8256C30.9037 19.8337 30.3427 19.0857 29.5988 19.0857C28.855 19.0857 28.2939 19.8337 28.2939 20.8256C28.2939 21.8175 28.8549 22.5656 29.5988 22.5656Z" fill="#073141"/>
<path d="M28.8196 26.1813C28.9739 25.8065 28.7952 25.3777 28.4205 25.2233C28.0455 25.0688 27.6168 25.2477 27.4625 25.6225C27.4585 25.6322 27.0216 26.5877 25.4688 26.5877C23.916 26.5877 23.4791 25.6322 23.4752 25.6225C23.3209 25.2477 22.8922 25.0689 22.5172 25.2233C22.1424 25.3776 21.9637 25.8065 22.118 26.1813C22.1494 26.2578 22.9189 28.0554 25.4687 28.0554C28.0186 28.0554 28.7882 26.2578 28.8196 26.1813Z" fill="#073141"/>
</svg>
