<svg width="51" height="50" viewBox="0 0 51 50" fill="none" xmlns="http://www.w3.org/2000/svg">
<g clip-path="url(#clip0_2014_386)">
<path d="M33.4526 27.5668C33.4526 25.9544 32.1408 24.6428 30.5285 24.6428C28.9162 24.6428 27.6045 25.9545 27.6045 27.5668C27.6045 29.1792 28.9162 30.491 30.5285 30.491C32.1408 30.491 33.4526 29.1792 33.4526 27.5668ZM29.0692 27.5668C29.0692 26.7623 29.7238 26.1077 30.5284 26.1077C31.3331 26.1077 31.9877 26.7623 31.9877 27.5668C31.9877 28.3715 31.3331 29.0261 30.5284 29.0261C29.7238 29.0261 29.0692 28.3715 29.0692 27.5668Z" fill="#073141"/>
<path d="M49.1181 40.787C48.652 40.5245 48.3624 40.0434 48.3624 39.5313V21.8423C48.3624 21.3302 48.6519 20.849 49.118 20.5867C50.1443 20.009 50.7354 18.9188 50.6605 17.7416C50.5654 16.2466 49.3683 15.03 47.8759 14.9116C46.7366 14.8217 45.6518 15.3677 45.0493 16.3381C44.7699 16.7879 44.3079 17.0565 43.8136 17.0565H40.2388L28.421 7.67298C28.5712 7.31693 28.6544 6.92582 28.6544 6.51556C28.6544 4.86831 27.3142 3.52808 25.667 3.52808C24.0197 3.52808 22.6795 4.86831 22.6795 6.51556C22.6795 6.86713 22.741 7.20443 22.853 7.5179L10.84 17.0566H7.52036C7.02593 17.0566 6.56402 16.788 6.28463 16.3381C5.68209 15.3679 4.59948 14.8206 3.45817 14.9117C1.96579 15.03 0.768533 16.2466 0.673416 17.7416C0.598319 18.9188 1.18943 20.0091 2.21599 20.5868C2.682 20.8492 2.97155 21.3303 2.97155 21.8424V39.5314C2.97155 40.0435 2.6819 40.5246 2.2157 40.7871C1.19129 41.3638 0.600175 42.4519 0.673026 43.627C0.767557 45.1507 1.98786 46.371 3.51139 46.4656C4.68639 46.5387 5.77496 45.9473 6.35181 44.9227C6.61421 44.4567 7.09527 44.1672 7.60737 44.1672H9.63119C10.0358 44.1672 10.3636 43.8393 10.3636 43.4348C10.3636 43.0302 10.0358 42.7023 9.63119 42.7023H7.60747C6.56714 42.7023 5.59683 43.2779 5.07525 44.2043C4.77643 44.7352 4.21403 45.042 3.60221 45.0037C2.82751 44.9555 2.18318 44.3109 2.13503 43.5364C2.09724 42.9268 2.40359 42.3624 2.93444 42.0635C3.8609 41.5419 4.43649 40.5717 4.43649 39.5313V21.8423C4.43649 20.8019 3.8609 19.8316 2.93454 19.31C2.40271 19.0107 2.09636 18.4454 2.13523 17.8346C2.18445 17.0618 2.8029 16.433 3.5738 16.3719C4.1654 16.3255 4.72799 16.608 5.04029 17.1107C5.58873 17.994 6.51587 18.5214 7.52036 18.5214H43.8136C44.8181 18.5214 45.7452 17.994 46.2937 17.1107C46.6058 16.6081 47.1663 16.3255 47.7601 16.3719C48.5311 16.433 49.1496 17.0618 49.1987 17.8347C49.2375 18.4454 48.9313 19.0108 48.3994 19.31C47.473 19.8316 46.8975 20.8018 46.8975 21.8423V39.5313C46.8975 40.5715 47.473 41.5419 48.3994 42.0635C48.9304 42.3624 49.2366 42.9268 49.1989 43.5363C49.1509 44.311 48.5063 44.9555 47.7318 45.0037C47.1211 45.0424 46.5576 44.7352 46.2587 44.2043C45.7371 43.2779 44.7669 42.7023 43.7265 42.7023H12.5597C12.1551 42.7023 11.8273 43.0302 11.8273 43.4348C11.8273 43.8393 12.1551 44.1672 12.5597 44.1672H43.7265C44.2386 44.1672 44.7197 44.4567 44.982 44.9227C45.566 45.9601 46.6632 46.5385 47.8226 46.4656C49.3462 46.3709 50.5664 45.1506 50.6608 43.6269C50.7338 42.4519 50.1426 41.3637 49.1181 40.787ZM25.667 4.99291C26.5065 4.99291 27.1895 5.67592 27.1895 6.51556C27.1895 7.35521 26.5065 8.03821 25.667 8.03821C24.8273 8.03821 24.1443 7.35521 24.1443 6.51556C24.1443 5.67592 24.8274 4.99291 25.667 4.99291ZM23.6727 8.73763C24.202 9.21311 24.9013 9.50305 25.667 9.50305C26.3747 9.50305 27.0254 9.2551 27.5378 8.84231L37.8828 17.0566H13.1958L23.6727 8.73763Z" fill="#073141"/>
<path d="M11.0955 21.626C11.5001 21.626 11.8279 21.2981 11.8279 20.8936C11.8279 20.489 11.5001 20.1611 11.0955 20.1611H6.80859C6.404 20.1611 6.07617 20.489 6.07617 20.8936V40.3301C6.07617 40.7347 6.404 41.0625 6.80859 41.0625H44.5253C44.9299 41.0625 45.2578 40.7347 45.2578 40.3301V20.8936C45.2578 20.489 44.9299 20.1611 44.5253 20.1611H14.0239C13.6193 20.1611 13.2915 20.489 13.2915 20.8936C13.2915 21.2981 13.6193 21.626 14.0239 21.626H43.7929V38.0661L41.1244 34.3738C40.8873 34.0458 40.4295 33.9725 40.1016 34.2091C39.7739 34.4461 39.7002 34.9039 39.937 35.2319L43.0922 39.5976H29.7701L36.3056 30.5549C36.3439 30.5019 36.395 30.4908 36.4311 30.4908C36.4673 30.4908 36.5184 30.5019 36.5567 30.5549L38.1994 32.8279C38.4364 33.1555 38.8942 33.2291 39.2221 32.9925C39.5499 32.7555 39.6236 32.2977 39.3868 31.9698L37.744 29.6968C37.4403 29.2766 36.9495 29.0258 36.4311 29.0259C35.9128 29.0259 35.4221 29.2767 35.1185 29.6968L30.4321 36.1811L26.9331 31.797C26.624 31.4096 26.1625 31.1876 25.667 31.1876C25.1716 31.1876 24.7101 31.4096 24.401 31.7969L20.902 36.1811L16.2157 29.6969C15.9121 29.2768 15.4213 29.026 14.903 29.026C14.9029 29.026 14.9031 29.026 14.903 29.026C14.3846 29.026 13.8937 29.2768 13.5901 29.6969L7.54101 38.0664V21.626H11.0955ZM25.5459 32.7107C25.5844 32.6625 25.633 32.6524 25.6669 32.6524C25.701 32.6524 25.7496 32.6625 25.788 32.7108L29.5413 37.4135L27.9628 39.5976H23.3711L21.7926 37.4134L25.5459 32.7107ZM14.7771 30.555C14.8155 30.502 14.8667 30.4909 14.9028 30.4909C14.9389 30.4909 14.9901 30.502 15.0284 30.555L21.5639 39.5977H8.24159L14.7771 30.555Z" fill="#073141"/>
</g>
<defs>
<clipPath id="clip0_2014_386">
<rect width="50" height="50" fill="white" transform="translate(0.666992)"/>
</clipPath>
</defs>
</svg>
