<svg width="50" height="50" viewBox="0 0 50 50" fill="none" xmlns="http://www.w3.org/2000/svg">
<path d="M29.8359 36.4848V18.8623C29.8359 17.7502 30.7458 16.8403 31.8579 16.8403C32.97 16.8403 33.8799 17.7503 33.8799 18.8623V30.8263" stroke="#073141" stroke-width="1.46509" stroke-miterlimit="22.9256"/>
<path d="M33.8803 27.2879C33.8803 26.1758 34.7902 25.2659 35.9023 25.2659C37.0145 25.2659 37.9243 26.1757 37.9243 27.2879V31.3319M41.9684 29.3099C41.9684 28.1978 42.8783 27.2879 43.9904 27.2879C45.1025 27.2879 46.0124 28.1979 46.0124 29.3099V38.916L43.9904 44.929H31.8055L26.9062 38.916V31.3148L29.8364 28.7777M41.9684 31.8374V28.2989C41.9684 27.1868 41.0585 26.2769 39.9464 26.2769C38.8343 26.2769 37.9244 27.1868 37.9244 28.2989" stroke="#073141" stroke-width="1.46509" stroke-miterlimit="22.9256"/>
<path d="M31.8057 44.929V49.2674H38.8629M40.328 49.2674H43.9906V44.929" stroke="#073141" stroke-width="1.46509" stroke-miterlimit="22.9256"/>
<path d="M29.8365 20.12L25.0788 22.4119L26.0899 14.9548L20.8887 9.5162L24.3014 8.89735M25.7433 8.63598L28.2934 8.17361L31.8585 1.54639L35.4236 8.17361L42.8282 9.5163L37.627 14.9549L38.6381 22.412L33.8804 20.1201" stroke="#073141" stroke-width="1.46509" stroke-miterlimit="22.9256"/>
<path fill-rule="evenodd" clip-rule="evenodd" d="M12.8783 15.4907L15.528 20.4161L21.0312 21.414L17.1656 25.4561L17.917 30.9983L12.8783 28.5709L7.83965 30.9983L8.59114 25.4561L4.72559 21.414L10.2287 20.4161L12.8783 15.4907Z" stroke="#073141" stroke-width="1.46509" stroke-miterlimit="22.9256"/>
<path fill-rule="evenodd" clip-rule="evenodd" d="M15.8089 36.0732L17.479 39.1778L20.9478 39.8069L18.5112 42.3547L18.9849 45.8481L15.8089 44.3181L12.6328 45.8481L13.1065 42.3547L10.6699 39.8069L14.1387 39.1778L15.8089 36.0732Z" stroke="#073141" stroke-width="1.46509" stroke-miterlimit="22.9256"/>
<path d="M32.5903 11.9792H34.0554M29.6602 11.9792H31.1252" stroke="#073141" stroke-width="1.46509" stroke-miterlimit="22.9256"/>
</svg>
