<svg width="145" height="37" viewBox="0 0 145 37" fill="none" xmlns="http://www.w3.org/2000/svg">
<g clip-path="url(#clip0_109_12675)">
<mask id="mask0_109_12675" style="mask-type:luminance" maskUnits="userSpaceOnUse" x="0" y="1" width="36" height="36">
<path d="M36 1.19531H0.84375V36.3516H36V1.19531Z" fill="white"/>
</mask>
<g mask="url(#mask0_109_12675)">
<path fill-rule="evenodd" clip-rule="evenodd" d="M24.0708 30.1178C22.365 32.9609 20.3022 34.2422 18.4219 34.2422C16.5415 34.2422 14.4787 32.9609 12.7729 30.1178C11.0922 27.3168 9.98438 23.3109 9.98438 18.7734C9.98438 14.2359 11.0922 10.2302 12.7729 7.4291C14.4787 4.58604 16.5415 3.30469 18.4219 3.30469C20.3022 3.30469 22.365 4.58604 24.0708 7.4291C25.7514 10.2302 26.8594 14.2359 26.8594 18.7734C26.8594 23.3109 25.7514 27.3168 24.0708 30.1178ZM36 18.7734C36 9.0653 28.1299 1.19531 18.4219 1.19531C8.71374 1.19531 0.84375 9.0653 0.84375 18.7734C0.84375 28.4815 8.71374 36.3516 18.4219 36.3516C28.1299 36.3516 36 28.4815 36 18.7734ZM2.95312 18.7734C2.95312 25.0893 6.73815 30.5209 12.1636 32.9238C9.56218 29.7227 7.875 24.5765 7.875 18.7734C7.875 12.9704 9.56218 7.82416 12.1636 4.62296C6.73815 7.02599 2.95312 12.4577 2.95312 18.7734ZM33.8906 18.7734C33.8906 25.0893 30.1055 30.5209 24.6802 32.9238C27.2816 29.7227 28.9688 24.5765 28.9688 18.7734C28.9688 12.9704 27.2816 7.82416 24.6802 4.62296C30.1055 7.02599 33.8906 12.4577 33.8906 18.7734ZM18.4219 20.707C19.4897 20.707 20.3555 19.8413 20.3555 18.7734C20.3555 17.7055 19.4897 16.8398 18.4219 16.8398C17.354 16.8398 16.4883 17.7055 16.4883 18.7734C16.4883 19.8413 17.354 20.707 18.4219 20.707Z" fill="url(#paint0_linear_109_12675)"/>
</g>
<path d="M44.7492 25.875C44.6883 25.875 44.6335 25.8567 44.5847 25.8202C44.5481 25.7714 44.5299 25.7166 44.5299 25.6556V13.2975C44.5299 13.2366 44.5481 13.1878 44.5847 13.1512C44.6335 13.1025 44.6883 13.0781 44.7492 13.0781H49.2099C50.0752 13.0781 50.8369 13.2305 51.495 13.5352C52.1531 13.8398 52.6589 14.2786 53.0124 14.8514C53.378 15.412 53.5608 16.0702 53.5608 16.8258V22.1273C53.5608 22.883 53.378 23.5472 53.0124 24.12C52.6589 24.6806 52.1531 25.1133 51.495 25.418C50.8369 25.7227 50.0752 25.875 49.2099 25.875H44.7492ZM46.6505 23.9555C46.6505 24.0164 46.681 24.0469 46.7419 24.0469H49.3013C49.9472 24.0469 50.4591 23.8458 50.8369 23.4436C51.2269 23.0292 51.428 22.4808 51.4402 21.7983V17.1731C51.4402 16.4784 51.2452 15.93 50.8552 15.5278C50.4652 15.1134 49.9411 14.9062 49.283 14.9062H46.7419C46.681 14.9062 46.6505 14.9367 46.6505 14.9977V23.9555ZM63.5088 20.153C63.5575 20.4577 63.5819 20.7989 63.5819 21.1767L63.5636 21.7434C63.5636 21.8897 63.4905 21.9628 63.3443 21.9628H57.6222C57.5613 21.9628 57.5308 21.9933 57.5308 22.0542C57.5674 22.4564 57.6222 22.7306 57.6954 22.8769C57.9879 23.7544 58.7008 24.1992 59.8343 24.2114C60.663 24.2114 61.3211 23.8702 61.8086 23.1877C61.8574 23.1145 61.9183 23.078 61.9915 23.078C62.0402 23.078 62.0829 23.0962 62.1194 23.1328L63.2529 24.0652C63.3625 24.1505 63.3808 24.248 63.3077 24.3577C62.9299 24.8939 62.4241 25.3083 61.7904 25.6008C61.1688 25.8933 60.4741 26.0395 59.7063 26.0395C58.7557 26.0395 57.9452 25.8263 57.2749 25.3997C56.6168 24.9731 56.1354 24.3759 55.8307 23.6081C55.5504 22.95 55.4102 22.0359 55.4102 20.8659C55.4102 20.1591 55.4833 19.5862 55.6296 19.1475C55.8733 18.2944 56.3304 17.6241 57.0007 17.1366C57.6832 16.6369 58.4997 16.387 59.4504 16.387C61.8513 16.387 63.2041 17.6423 63.5088 20.153ZM59.4504 18.2152C58.9994 18.2152 58.6216 18.3309 58.3169 18.5625C58.0244 18.7819 57.8172 19.0927 57.6954 19.4948C57.6222 19.702 57.5735 19.9702 57.5491 20.2992C57.5247 20.3602 57.5491 20.3906 57.6222 20.3906H61.3333C61.3943 20.3906 61.4247 20.3602 61.4247 20.2992C61.4004 19.9945 61.3638 19.763 61.315 19.6045C61.2054 19.1658 60.986 18.8245 60.6569 18.5808C60.34 18.337 59.9379 18.2152 59.4504 18.2152ZM68.8506 25.9847C68.0828 25.9847 67.4064 25.875 66.8214 25.6556C66.2486 25.4241 65.8038 25.1133 65.4869 24.7233C65.17 24.3211 65.0116 23.8762 65.0116 23.3887V23.2242C65.0116 23.1633 65.0299 23.1145 65.0664 23.078C65.1152 23.0292 65.17 23.0048 65.2309 23.0048H66.8397C66.9006 23.0048 66.9494 23.0292 66.9859 23.078C67.0347 23.1145 67.0591 23.1633 67.0591 23.2242V23.2608C67.0591 23.5655 67.2236 23.8336 67.5527 24.0652C67.8939 24.2845 68.3205 24.3942 68.8324 24.3942C69.3199 24.3942 69.7159 24.2967 70.0206 24.1017C70.3253 23.8945 70.4777 23.6386 70.4777 23.3339C70.4777 23.0536 70.3497 22.8464 70.0938 22.7123C69.85 22.5661 69.4478 22.4137 68.8872 22.2553L68.1925 22.0359C67.5709 21.8531 67.0469 21.6581 66.6203 21.4509C66.1938 21.2437 65.8342 20.9634 65.5417 20.61C65.2492 20.2444 65.103 19.7812 65.103 19.2206C65.103 18.3675 65.4381 17.6911 66.1084 17.1914C66.7788 16.6795 67.6624 16.4236 68.7592 16.4236C69.5027 16.4236 70.1547 16.5455 70.7153 16.7892C71.2759 17.0208 71.7086 17.3498 72.0133 17.7764C72.318 18.1908 72.4703 18.6661 72.4703 19.2023C72.4703 19.2633 72.4459 19.3181 72.3972 19.3669C72.3606 19.4034 72.3119 19.4217 72.2509 19.4217H70.697C70.6361 19.4217 70.5813 19.4034 70.5325 19.3669C70.4959 19.3181 70.4777 19.2633 70.4777 19.2023C70.4777 18.8855 70.3192 18.6234 70.0024 18.4162C69.6977 18.1969 69.2772 18.0872 68.7409 18.0872C68.2656 18.0872 67.8756 18.1786 67.5709 18.3614C67.2784 18.532 67.1322 18.7758 67.1322 19.0927C67.1322 19.3852 67.2724 19.6106 67.5527 19.7691C67.8452 19.9153 68.3266 20.0798 68.9969 20.2627L69.3991 20.3723C70.045 20.5673 70.5874 20.7684 71.0261 20.9756C71.4649 21.1706 71.8366 21.4509 72.1413 21.8166C72.4459 22.17 72.5983 22.6331 72.5983 23.2059C72.5983 24.0712 72.257 24.7537 71.5745 25.2534C70.892 25.7409 69.9841 25.9847 68.8506 25.9847ZM75.5994 15.2536C75.2216 15.2536 74.9108 15.1317 74.6671 14.888C74.4233 14.6442 74.3014 14.3334 74.3014 13.9556C74.3014 13.5778 74.4233 13.267 74.6671 13.0233C74.9108 12.7795 75.2216 12.6577 75.5994 12.6577C75.9772 12.6577 76.288 12.7795 76.5318 13.0233C76.7755 13.267 76.8974 13.5778 76.8974 13.9556C76.8974 14.3334 76.7755 14.6442 76.5318 14.888C76.288 15.1317 75.9772 15.2536 75.5994 15.2536ZM74.7219 25.875C74.661 25.875 74.6061 25.8567 74.5574 25.8202C74.5208 25.7714 74.5025 25.7166 74.5025 25.6556V16.7344C74.5025 16.6734 74.5208 16.6247 74.5574 16.5881C74.6061 16.5394 74.661 16.515 74.7219 16.515H76.4038C76.4647 16.515 76.5135 16.5394 76.55 16.5881C76.5988 16.6247 76.6232 16.6734 76.6232 16.7344V25.6556C76.6232 25.7166 76.5988 25.7714 76.55 25.8202C76.5135 25.8567 76.4647 25.875 76.4038 25.875H74.7219ZM84.7745 16.7527C84.7745 16.6917 84.7927 16.643 84.8293 16.6064C84.8781 16.5577 84.9329 16.5333 84.9938 16.5333H86.6757C86.7366 16.5333 86.7854 16.5577 86.822 16.6064C86.8707 16.643 86.8951 16.6917 86.8951 16.7527V25.2534C86.8951 26.7769 86.4563 27.8616 85.5788 28.5075C84.7135 29.1656 83.574 29.4947 82.1602 29.4947C81.7824 29.4947 81.4107 29.4764 81.0451 29.4398C80.911 29.4277 80.844 29.3484 80.844 29.2022L80.8988 27.7031C80.8988 27.5691 80.9841 27.502 81.1548 27.502C81.5082 27.5386 81.8251 27.5569 82.1054 27.5569C83.0195 27.5569 83.6898 27.3741 84.1163 27.0084C84.5551 26.655 84.7745 26.0517 84.7745 25.1986V25.0523C84.7745 25.0158 84.7623 24.9975 84.7379 24.9975C84.7135 24.9853 84.6891 24.9914 84.6648 25.0158C84.1651 25.552 83.4582 25.8202 82.5441 25.8202C81.752 25.8202 81.0268 25.6191 80.3687 25.2169C79.7106 24.8147 79.2535 24.1992 78.9976 23.3705C78.8391 22.7977 78.7599 22.0603 78.7599 21.1584C78.7599 20.1469 78.8574 19.373 79.0524 18.8367C79.2962 18.0933 79.7166 17.5022 80.3138 17.0634C80.911 16.6125 81.6118 16.387 82.4162 16.387C83.379 16.387 84.1285 16.6673 84.6648 17.228C84.6891 17.2645 84.7135 17.2767 84.7379 17.2645C84.7623 17.2523 84.7745 17.228 84.7745 17.1914V16.7527ZM84.6465 22.7672C84.6952 22.5844 84.7257 22.3894 84.7379 22.1822C84.7623 21.9628 84.7745 21.6155 84.7745 21.1402C84.7745 20.677 84.7623 20.348 84.7379 20.153C84.7257 19.9458 84.6891 19.7447 84.6282 19.5497C84.5307 19.1475 84.3296 18.8245 84.0249 18.5808C83.7324 18.337 83.3546 18.2152 82.8915 18.2152C82.4527 18.2152 82.081 18.337 81.7763 18.5808C81.4716 18.8245 81.2523 19.1475 81.1182 19.5497C80.972 19.8909 80.8988 20.4272 80.8988 21.1584C80.8988 21.9141 80.9598 22.4442 81.0816 22.7489C81.2035 23.1389 81.4229 23.4619 81.7398 23.7178C82.0688 23.9616 82.4588 24.0834 82.9098 24.0834C83.3851 24.0834 83.769 23.9616 84.0615 23.7178C84.354 23.4741 84.549 23.1572 84.6465 22.7672ZM93.5646 16.387C94.5518 16.387 95.3379 16.6795 95.9229 17.2645C96.5201 17.8495 96.8187 18.6478 96.8187 19.6594V25.6556C96.8187 25.7166 96.7943 25.7714 96.7455 25.8202C96.709 25.8567 96.6602 25.875 96.5993 25.875H94.9174C94.8565 25.875 94.8016 25.8567 94.7529 25.8202C94.7163 25.7714 94.698 25.7166 94.698 25.6556V20.0981C94.698 19.5375 94.5396 19.0866 94.2227 18.7453C93.9058 18.3919 93.4854 18.2152 92.9613 18.2152C92.4373 18.2152 92.0107 18.3858 91.6816 18.727C91.3648 19.0683 91.2063 19.5192 91.2063 20.0798V25.6556C91.2063 25.7166 91.1819 25.7714 91.1332 25.8202C91.0966 25.8567 91.0479 25.875 90.9869 25.875H89.3051C89.2441 25.875 89.1893 25.8567 89.1405 25.8202C89.104 25.7714 89.0857 25.7166 89.0857 25.6556V16.7527C89.0857 16.6917 89.104 16.643 89.1405 16.6064C89.1893 16.5577 89.2441 16.5333 89.3051 16.5333H90.9869C91.0479 16.5333 91.0966 16.5577 91.1332 16.6064C91.1819 16.643 91.2063 16.6917 91.2063 16.7527V17.3377C91.2063 17.3742 91.2185 17.3986 91.2429 17.4108C91.2673 17.423 91.2855 17.4108 91.2977 17.3742C91.7974 16.7161 92.553 16.387 93.5646 16.387ZM107.878 14.6869C107.878 14.7478 107.853 14.8027 107.805 14.8514C107.768 14.888 107.719 14.9062 107.658 14.9062H101.443C101.382 14.9062 101.351 14.9367 101.351 14.9977V18.4162C101.351 18.4772 101.382 18.5077 101.443 18.5077H105.629C105.69 18.5077 105.739 18.532 105.775 18.5808C105.824 18.6173 105.849 18.6661 105.849 18.727V20.1164C105.849 20.1773 105.824 20.2322 105.775 20.2809C105.739 20.3175 105.69 20.3358 105.629 20.3358H101.443C101.382 20.3358 101.351 20.3662 101.351 20.4272V25.6556C101.351 25.7166 101.327 25.7714 101.278 25.8202C101.242 25.8567 101.193 25.875 101.132 25.875H99.4502C99.3892 25.875 99.3344 25.8567 99.2856 25.8202C99.2491 25.7714 99.2308 25.7166 99.2308 25.6556V13.2975C99.2308 13.2366 99.2491 13.1878 99.2856 13.1512C99.3344 13.1025 99.3892 13.0781 99.4502 13.0781H107.658C107.719 13.0781 107.768 13.1025 107.805 13.1512C107.853 13.1878 107.878 13.2366 107.878 13.2975V14.6869ZM112.352 26.0213C111.389 26.0213 110.56 25.7775 109.865 25.29C109.183 24.8025 108.701 24.1261 108.421 23.2608C108.214 22.6027 108.11 21.908 108.11 21.1767C108.11 20.3967 108.208 19.702 108.403 19.0927C108.683 18.2395 109.171 17.5753 109.865 17.1C110.56 16.6247 111.395 16.387 112.37 16.387C113.296 16.387 114.094 16.6247 114.765 17.1C115.447 17.5753 115.929 18.2334 116.209 19.0744C116.428 19.6594 116.538 20.3541 116.538 21.1584C116.538 21.9262 116.434 22.6209 116.227 23.2425C115.947 24.1078 115.465 24.7903 114.783 25.29C114.1 25.7775 113.29 26.0213 112.352 26.0213ZM112.352 24.1931C112.803 24.1931 113.186 24.0652 113.503 23.8092C113.832 23.5533 114.07 23.1937 114.216 22.7306C114.338 22.3284 114.399 21.8166 114.399 21.195C114.399 20.5369 114.338 20.025 114.216 19.6594C114.082 19.1962 113.851 18.8428 113.522 18.5991C113.193 18.3431 112.79 18.2152 112.315 18.2152C111.864 18.2152 111.474 18.3431 111.145 18.5991C110.816 18.8428 110.578 19.1962 110.432 19.6594C110.31 20.0859 110.249 20.5978 110.249 21.195C110.249 21.7922 110.31 22.3041 110.432 22.7306C110.566 23.1937 110.798 23.5533 111.127 23.8092C111.468 24.0652 111.876 24.1931 112.352 24.1931ZM122.894 16.4236C123.284 16.4236 123.625 16.5028 123.917 16.6612C124.015 16.71 124.052 16.8014 124.027 16.9355L123.716 18.5808C123.704 18.727 123.619 18.7697 123.46 18.7087C123.278 18.6478 123.064 18.6173 122.821 18.6173C122.662 18.6173 122.54 18.6234 122.455 18.6356C121.943 18.66 121.517 18.8428 121.175 19.1841C120.834 19.5131 120.663 19.9458 120.663 20.482V25.6556C120.663 25.7166 120.639 25.7714 120.59 25.8202C120.554 25.8567 120.505 25.875 120.444 25.875H118.762C118.701 25.875 118.646 25.8567 118.598 25.8202C118.561 25.7714 118.543 25.7166 118.543 25.6556V16.7527C118.543 16.6917 118.561 16.643 118.598 16.6064C118.646 16.5577 118.701 16.5333 118.762 16.5333H120.444C120.505 16.5333 120.554 16.5577 120.59 16.6064C120.639 16.643 120.663 16.6917 120.663 16.7527V17.5753C120.663 17.6241 120.67 17.6545 120.682 17.6667C120.706 17.6667 120.73 17.6484 120.755 17.6119C121.267 16.8197 121.98 16.4236 122.894 16.4236ZM130.799 16.7527C130.799 16.6917 130.817 16.643 130.854 16.6064C130.903 16.5577 130.957 16.5333 131.018 16.5333H132.7C132.761 16.5333 132.81 16.5577 132.846 16.6064C132.895 16.643 132.92 16.6917 132.92 16.7527V25.2534C132.92 26.7769 132.481 27.8616 131.603 28.5075C130.738 29.1656 129.598 29.4947 128.185 29.4947C127.807 29.4947 127.435 29.4764 127.07 29.4398C126.935 29.4277 126.868 29.3484 126.868 29.2022L126.923 27.7031C126.923 27.5691 127.009 27.502 127.179 27.502C127.533 27.5386 127.85 27.5569 128.13 27.5569C129.044 27.5569 129.714 27.3741 130.141 27.0084C130.58 26.655 130.799 26.0517 130.799 25.1986V25.0523C130.799 25.0158 130.787 24.9975 130.762 24.9975C130.738 24.9853 130.714 24.9914 130.689 25.0158C130.19 25.552 129.483 25.8202 128.569 25.8202C127.776 25.8202 127.051 25.6191 126.393 25.2169C125.735 24.8147 125.278 24.1992 125.022 23.3705C124.864 22.7977 124.784 22.0603 124.784 21.1584C124.784 20.1469 124.882 19.373 125.077 18.8367C125.321 18.0933 125.741 17.5022 126.338 17.0634C126.935 16.6125 127.636 16.387 128.441 16.387C129.403 16.387 130.153 16.6673 130.689 17.228C130.714 17.2645 130.738 17.2767 130.762 17.2645C130.787 17.2523 130.799 17.228 130.799 17.1914V16.7527ZM130.671 22.7672C130.72 22.5844 130.75 22.3894 130.762 22.1822C130.787 21.9628 130.799 21.6155 130.799 21.1402C130.799 20.677 130.787 20.348 130.762 20.153C130.75 19.9458 130.714 19.7447 130.653 19.5497C130.555 19.1475 130.354 18.8245 130.049 18.5808C129.757 18.337 129.379 18.2152 128.916 18.2152C128.477 18.2152 128.105 18.337 127.801 18.5808C127.496 18.8245 127.277 19.1475 127.143 19.5497C126.996 19.8909 126.923 20.4272 126.923 21.1584C126.923 21.9141 126.984 22.4442 127.106 22.7489C127.228 23.1389 127.447 23.4619 127.764 23.7178C128.093 23.9616 128.483 24.0834 128.934 24.0834C129.41 24.0834 129.793 23.9616 130.086 23.7178C130.378 23.4741 130.573 23.1572 130.671 22.7672ZM142.989 20.153C143.038 20.4577 143.063 20.7989 143.063 21.1767L143.044 21.7434C143.044 21.8897 142.971 21.9628 142.825 21.9628H137.103C137.042 21.9628 137.011 21.9933 137.011 22.0542C137.048 22.4564 137.103 22.7306 137.176 22.8769C137.468 23.7544 138.181 24.1992 139.315 24.2114C140.144 24.2114 140.802 23.8702 141.289 23.1877C141.338 23.1145 141.399 23.078 141.472 23.078C141.521 23.078 141.563 23.0962 141.6 23.1328L142.733 24.0652C142.843 24.1505 142.861 24.248 142.788 24.3577C142.41 24.8939 141.905 25.3083 141.271 25.6008C140.649 25.8933 139.955 26.0395 139.187 26.0395C138.236 26.0395 137.426 25.8263 136.755 25.3997C136.097 24.9731 135.616 24.3759 135.311 23.6081C135.031 22.95 134.891 22.0359 134.891 20.8659C134.891 20.1591 134.964 19.5862 135.11 19.1475C135.354 18.2944 135.811 17.6241 136.481 17.1366C137.164 16.6369 137.98 16.387 138.931 16.387C141.332 16.387 142.685 17.6423 142.989 20.153ZM138.931 18.2152C138.48 18.2152 138.102 18.3309 137.798 18.5625C137.505 18.7819 137.298 19.0927 137.176 19.4948C137.103 19.702 137.054 19.9702 137.03 20.2992C137.005 20.3602 137.03 20.3906 137.103 20.3906H140.814C140.875 20.3906 140.905 20.3602 140.905 20.2992C140.881 19.9945 140.844 19.763 140.796 19.6045C140.686 19.1658 140.467 18.8245 140.138 18.5808C139.821 18.337 139.418 18.2152 138.931 18.2152Z" fill="#073141"/>
</g>
<defs>
<linearGradient id="paint0_linear_109_12675" x1="0.492188" y1="18.4219" x2="35.2969" y2="18.4219" gradientUnits="userSpaceOnUse">
<stop stop-color="#1D7293"/>
<stop offset="1" stop-color="#073141"/>
</linearGradient>
<clipPath id="clip0_109_12675">
<rect width="143.438" height="35.8594" fill="white" transform="translate(0.84375 0.84375)"/>
</clipPath>
</defs>
</svg>
