<svg width="51" height="50" viewBox="0 0 51 50" fill="none" xmlns="http://www.w3.org/2000/svg">
<path d="M48.1542 45.8927V42.0207C48.1542 41.6154 47.8257 41.2868 47.4203 41.2868C47.0149 41.2868 46.6864 41.6154 46.6864 42.0207V45.8017H45.7437V35.5554C46.0566 35.5988 46.3734 35.5988 46.6864 35.5554V39.0856C46.6864 39.4909 47.0149 39.8195 47.4203 39.8195C47.8257 39.8195 48.1542 39.4909 48.1542 39.0856V34.9842C49.0492 34.3664 49.6373 33.3341 49.6373 32.1667C49.6373 30.2799 48.1021 28.7449 46.2151 28.7449C44.3281 28.7449 42.793 30.2799 42.793 32.1667C42.793 33.3341 43.381 34.3664 44.2761 34.9842V36.3504C44.0998 36.718 43.5071 37.8494 42.409 38.9621C40.6631 40.7312 38.5148 41.6283 36.0241 41.6283C33.5334 41.6283 31.3852 40.7312 29.6393 38.9621C28.5403 37.8485 27.9476 36.7164 27.7722 36.3504V34.9842C28.6672 34.3664 29.2553 33.3341 29.2553 32.1667C29.2553 30.2799 27.7201 28.7449 25.8331 28.7449C23.9461 28.7449 22.4109 30.2799 22.4109 32.1667C22.4109 33.3341 22.999 34.3664 23.894 34.9842V36.3504C23.7178 36.718 23.1251 37.8494 22.027 38.9621C20.2811 40.7312 18.1328 41.6283 15.6421 41.6283C13.1514 41.6283 11.0031 40.7312 9.25723 38.9621C8.1583 37.8485 7.56553 36.7164 7.39014 36.3504V34.9842C8.28516 34.3664 8.87324 33.3341 8.87324 32.1667C8.87324 30.2799 7.33809 28.7449 5.45107 28.7449C3.56406 28.7449 2.02891 30.2799 2.02891 32.1667C2.02891 33.3341 2.61689 34.3663 3.51191 34.9841V45.8927C1.97891 46.2499 0.833008 47.6263 0.833008 49.2662C0.833008 49.6715 1.16152 50 1.56689 50H9.33496C9.74033 50 10.0688 49.6715 10.0688 49.2662C10.0688 47.6262 8.92295 46.2498 7.39004 45.8927V39.0651C7.61914 39.3526 7.87813 39.6506 8.16924 39.9488C10.1791 42.0077 12.7632 43.0959 15.642 43.0959C18.5209 43.0959 21.1049 42.0077 23.1148 39.9488C23.406 39.6506 23.6648 39.3526 23.8939 39.0651V45.8927C22.3609 46.2498 21.215 47.6262 21.215 49.2662C21.215 49.6714 21.5436 50 21.9489 50H29.7171C30.1225 50 30.451 49.6715 30.451 49.2662C30.451 47.6262 29.3051 46.2498 27.7722 45.8927V39.0651C28.0013 39.3526 28.2603 39.6506 28.5513 39.9488C30.5611 42.0077 33.1452 43.0959 36.0241 43.0959C38.9029 43.0959 41.487 42.0077 43.4969 39.9488C43.788 39.6506 44.0469 39.3526 44.2761 39.0651V45.8927C42.7432 46.2498 41.5973 47.6262 41.5973 49.2662C41.5973 49.6714 41.9258 50 42.3312 50H50.0992C50.5046 50 50.8331 49.6715 50.8331 49.2662C50.833 47.6262 49.6871 46.2498 48.1542 45.8927ZM46.215 30.2126C47.2927 30.2126 48.1695 31.0893 48.1695 32.1667C48.1695 33.2443 47.2928 34.1209 46.215 34.1209C45.1374 34.1209 44.2605 33.2443 44.2605 32.1667C44.2606 31.0893 45.1374 30.2126 46.215 30.2126ZM5.45098 30.2126C6.52861 30.2126 7.40547 31.0893 7.40547 32.1667C7.40547 33.2443 6.52861 34.1209 5.45098 34.1209C4.37334 34.1209 3.49648 33.2443 3.49648 32.1667C3.49648 31.0893 4.37324 30.2126 5.45098 30.2126ZM5.45098 35.5887C5.61094 35.5887 5.76816 35.5768 5.92236 35.5555V45.8018H4.97949V35.5554C5.13369 35.5768 5.29092 35.5887 5.45098 35.5887ZM8.46143 48.5324H2.44043C2.7335 47.7935 3.45557 47.2696 4.29775 47.2696H6.6041C7.44619 47.2695 8.16836 47.7934 8.46143 48.5324ZM25.833 30.2126C26.9106 30.2126 27.7875 31.0893 27.7875 32.1667C27.7875 33.2443 26.9106 34.1209 25.833 34.1209C24.7554 34.1209 23.8785 33.2443 23.8785 32.1667C23.8785 31.0893 24.7554 30.2126 25.833 30.2126ZM25.833 35.5887C25.993 35.5887 26.1502 35.5768 26.3044 35.5555V45.8018H25.3616V35.5554C25.5158 35.5768 25.673 35.5887 25.833 35.5887ZM28.8436 48.5324H22.8225C23.1156 47.7935 23.8377 47.2696 24.6799 47.2696H26.9861C27.8282 47.2695 28.5504 47.7934 28.8436 48.5324ZM43.2046 48.5324C43.4977 47.7935 44.2197 47.2696 45.0619 47.2696H47.3683C48.2104 47.2696 48.9325 47.7935 49.2256 48.5324H43.2046Z" fill="#073141"/>
<path d="M50.8299 0.67168C50.7982 0.298828 50.4738 0 50.0991 0H1.56689C1.16738 0 0.833008 0.335156 0.833008 0.733887V25.8345C0.833008 26.2332 1.16738 26.5684 1.56689 26.5684H50.0992C50.4987 26.5684 50.8331 26.2332 50.8331 25.8345V0.733887C50.833 0.712891 50.8316 0.692187 50.8299 0.67168ZM47.7394 22.4372V4.13115L49.3653 2.50537V24.063L47.7394 22.4372ZM33.4953 22.0073L29.6723 18.415L35.5053 12.9342C36.2034 12.278 37.2972 12.278 37.9955 12.9342L46.2717 20.7106V22.0072L33.4953 22.0073ZM48.3272 1.46768L46.7015 3.09326H38.9974C38.592 3.09326 38.2635 3.42187 38.2635 3.82715C38.2635 4.23242 38.592 4.56104 38.9974 4.56104H46.2716V18.6968L39.0005 11.8646C37.7388 10.679 35.7621 10.6789 34.5002 11.8646L28.6006 17.408L21.1827 10.438C19.921 9.25244 17.9442 9.25244 16.6823 10.438L11.134 15.6514C10.8387 15.9289 10.8242 16.3934 11.1017 16.6887C11.3794 16.9842 11.8438 16.9984 12.139 16.721L17.6873 11.5076C18.3856 10.8516 19.4793 10.8516 20.1776 11.5076L31.3519 22.0073H6.51318L9.99951 18.7313C10.2949 18.4538 10.3093 17.9894 10.0318 17.694C9.7543 17.3986 9.28975 17.3844 8.99453 17.6617L5.39434 21.0445V4.56104H36.0619C36.4673 4.56104 36.7958 4.23242 36.7958 3.82715C36.7958 3.42187 36.4673 3.09326 36.0619 3.09326H4.96445L3.33877 1.46768H48.3272ZM2.30068 2.50537L3.92666 4.13115V22.4373L2.30068 24.0631V2.50537ZM3.33877 25.1006L4.96455 23.475H46.7016L48.3273 25.1006H3.33877Z" fill="#073141"/>
<path d="M28.624 6.17407C26.8745 6.17407 25.4512 7.59731 25.4512 9.34663C25.4512 11.0959 26.8745 12.5192 28.624 12.5192C30.3735 12.5192 31.7968 11.096 31.7968 9.34663C31.7968 7.59722 30.3735 6.17407 28.624 6.17407ZM28.624 11.0514C27.6838 11.0514 26.9188 10.2867 26.9188 9.34663C26.9188 8.40659 27.6838 7.64175 28.624 7.64175C29.5642 7.64175 30.3291 8.40659 30.3291 9.34663C30.3291 10.2867 29.5642 11.0514 28.624 11.0514Z" fill="#073141"/>
</svg>
